<svg width="31" height="35" viewBox="0 0 31 35" fill="none" xmlns="http://www.w3.org/2000/svg">
<path d="M25.4465 7.55908C25.4472 8.21025 25.1831 8.83876 24.7049 9.32428C24.2266 9.80981 23.5678 10.1182 22.8546 10.1905C22.7713 10.2059 22.686 10.2098 22.6014 10.2021C22.5782 10.2115 22.5527 10.2154 22.5274 10.2136C22.1087 10.212 21.6952 10.1286 21.3152 9.96916C20.9351 9.80971 20.5973 9.57791 20.3248 9.2895C20.2269 9.18658 20.0925 9.11791 19.9448 9.09535C19.7971 9.0728 19.6454 9.09779 19.5158 9.16599C19.0559 9.42393 18.5248 9.55826 17.9841 9.55339C17.4434 9.54852 16.9154 9.40465 16.4612 9.13847C16.3555 9.08112 16.2342 9.05175 16.1111 9.05368C15.9879 9.0556 15.8679 9.08874 15.7644 9.14935C14.863 9.7093 14.4949 9.98832 13.4059 9.99408C13.0603 9.99408 13.0455 10.2193 13.0455 10.5387L12.9496 18.602C12.9496 19.8729 10.9564 21.2699 9.55575 21.2699C8.15505 21.2699 6.19224 20.0393 6.19224 18.7684L6.17743 9.78738C6.17743 9.52436 6.16544 9.50388 6.07023 9.30934C6.02982 9.22695 5.96 9.15932 5.87204 9.11735C5.85098 9.105 5.82658 9.09814 5.80152 9.09751C5.5998 9.09751 5.5328 9.16599 5.47708 9.23318C5.36917 9.36437 5.38328 9.36565 5.29724 9.47316C4.9058 9.96336 4.118 10.2155 2.94087 10.2155C2.90537 10.2174 2.86978 10.2135 2.83579 10.204C2.75539 10.204 2.68768 10.1989 2.60728 10.1931C1.86401 10.1202 1.17983 9.79148 0.695602 9.27466C0.211373 8.75784 -0.0360555 8.09224 0.00425264 7.41489C0.0445608 6.73753 0.369538 6.09998 0.912283 5.63347C1.45503 5.16697 2.17423 4.90702 2.92183 4.90714C2.94652 4.90714 3.03327 4.91226 3.05795 4.91226C3.19818 4.91314 3.33477 4.87186 3.44642 4.79488C3.55806 4.71789 3.63847 4.60952 3.67508 4.4867C3.83446 3.91602 4.19879 3.40976 4.71055 3.04786C5.2223 2.68595 5.85233 2.48902 6.50116 2.48814C6.77067 2.49059 7.03855 2.52633 7.29743 2.59438C7.42858 2.62477 7.56701 2.61632 7.69249 2.57027C7.81798 2.52422 7.92396 2.44297 7.99495 2.3384C8.48966 1.62025 9.17819 1.02856 9.99537 0.619362C10.8125 0.21016 11.7313 -0.00301156 12.6646 3.21421e-05C13.6413 0.00319148 14.5997 0.240479 15.4428 0.687863C16.2859 1.13525 16.9837 1.77684 17.4655 2.54766C17.5372 2.66027 17.6488 2.74756 17.7821 2.79531C17.9154 2.84307 18.0626 2.84848 18.1997 2.81068C18.4436 2.74093 18.6973 2.70322 18.953 2.69869C19.5672 2.69923 20.1655 2.87615 20.6622 3.20412C21.1588 3.53209 21.5283 3.99427 21.7177 4.52445C21.7698 4.65485 21.8705 4.7646 22.0024 4.83472C22.1343 4.90484 22.2891 4.93091 22.4399 4.90842C22.4646 4.90842 22.4893 4.90266 22.526 4.90266C23.301 4.90503 24.0434 5.18587 24.5907 5.68371C25.1381 6.18156 25.4458 6.85587 25.4465 7.55908Z" fill="white"/>
<path d="M24.091 12.0528H22.1247V10.5169C21.2283 10.434 20.3848 10.0924 19.7183 9.54225C19.1543 9.77336 18.5403 9.88634 17.9216 9.87283C17.303 9.85931 16.6956 9.71964 16.1446 9.46417C15.2992 9.92753 14.3506 10.2141 13.3679 10.3031V18.1284C13.3679 19.047 12.9657 19.9279 12.2499 20.5774C11.5341 21.2269 10.5632 21.5918 9.55087 21.5918C8.53854 21.5918 7.56767 21.2269 6.85184 20.5774C6.13601 19.9279 5.73386 19.047 5.73386 18.1284V9.55312C5.06963 10.1077 4.22061 10.4454 3.32108 10.513V27.5177C3.32384 29.5769 2.86079 31.6147 1.96059 33.505C1.88055 33.6664 1.8471 33.8436 1.86339 34.0199C1.87968 34.1963 1.94516 34.3659 2.05368 34.513C2.1616 34.6626 2.3089 34.7855 2.48227 34.8705C2.65565 34.9555 2.84964 35 3.04673 35H22.3962C22.5518 35.0007 22.7061 34.9737 22.8502 34.9203C22.9942 34.867 23.1253 34.7884 23.2359 34.6891C23.3466 34.5898 23.4345 34.4718 23.4949 34.3416C23.5552 34.2115 23.5866 34.0718 23.5875 33.9306C23.5876 33.78 23.5517 33.6311 23.4824 33.4942C22.9602 32.3901 22.5834 31.2341 22.3596 30.05V30.0385C22.3173 29.8192 22.2808 29.599 22.2502 29.378H23.1474C24.9946 29.376 26.7655 28.7093 28.0717 27.5241C29.3779 26.3389 30.1126 24.7321 30.1149 23.056V17.5179C30.1123 16.0691 29.4768 14.6803 28.3476 13.6559C27.2185 12.6314 25.6878 12.055 24.091 12.0528ZM28.4173 22.3226C28.4154 23.7374 27.7951 25.0937 26.6925 26.094C25.59 27.0943 24.0951 27.657 22.5359 27.6585H22.1261C22.1261 27.6137 22.1261 27.5689 22.1261 27.5241V13.7653H23.1897C24.5754 13.7668 25.9039 14.2669 26.8838 15.156C27.8637 16.0451 28.4149 17.2505 28.4166 18.5079L28.4173 22.3226Z" fill="white"/>
</svg>
